PathFileType	4	(X/Y/Z)	OpenSim_Sub09_CSBaseline_Accel.trc
DataRate	CameraRate	NumFrames	NumMarkers	Units	OrigDataRate	OrigDataStartFrame	OrigNumFrames
100	100	31	8	m	100	2191	5840
Frame#	Time	torso_imu_offset_imu	pelvis_imu_offset_imu	tibia_r_imu_offset_imu	femur_r_imu_offset_imu	tibia_l_imu_offset_imu	femur_l_imu_offset_imu	toes_r_imu_offset_imu	toes_l_imu_offset_imu
				X1	Y1	Z1	X2	Y2	Z2	X3	Y3	Z3	X4	Y4	Z4	X5	Y5	Z5	X6	Y6	Z6	X7	Y7	Z7	X8		Y8	Z8	

2191	21.90000000	11.28695785	-0.00935261	6.76825874	10.99899761	-0.34814249	3.13564826	8.00357879	9.28500898	-3.99492700	8.20518665	-3.62245731	-2.10733464	14.32748787	-1.65595014	0.79740765	11.48686228	2.70555518	0.73025487	11.37980363	-7.90142486	8.75160798	5.62235443	4.46113526	12.89881708
2192	21.91000000	10.88892977	-0.03211912	6.62338677	11.04116005	-1.50945613	3.29565073	8.21245581	9.71902491	-6.10185085	8.72226797	-1.00553809	-0.05041287	13.70043483	-0.97251295	0.84070615	10.95419876	1.90950358	1.36128399	13.53820593	-5.54720223	8.15552051	7.01275298	6.21038960	13.31177806
2193	21.92000000	10.89753875	-0.05920124	6.58973562	11.07651513	-1.92593624	3.77019681	8.52922018	8.26292323	-6.70356836	8.13761837	-0.18088127	0.63409061	13.11835021	-0.56341149	0.32418831	10.58110336	1.31035943	1.94858398	5.68313019	-5.04058177	7.05488288	6.41162914	5.55944957	12.59810249
2194	21.93000000	10.78954113	-0.28203258	6.56045514	10.66998491	-1.67825827	4.04912417	8.95876973	8.47336029	-5.18805417	8.25735990	0.65335238	-0.86501405	12.45328955	-0.29355216	-0.61598402	10.02929113	0.22062582	2.17576704	6.04664623	-3.96222957	7.52145454	8.66617890	5.04848968	12.94510538
2195	21.94000000	10.32094605	-0.65379767	6.47234965	10.41243512	-1.60876011	4.29739971	9.20739283	9.41078489	-3.02333423	9.68590798	1.88081401	-0.63901261	11.41696289	-0.81633901	-1.50139168	10.04712556	-0.51388740	2.19892369	8.73862815	-1.44556687	8.59480305	10.54797501	5.35222134	14.04970881
2196	21.95000000	9.94195928	-0.98432125	6.35333289	10.37902042	-1.57318074	4.57154404	9.95189967	9.94662242	-0.92748425	10.64429383	2.19641963	0.35120219	10.42310207	-2.15185759	-1.51233182	10.07620160	-1.30256301	2.01020894	7.94579389	-1.09010932	9.29355697	11.44234647	3.83946825	13.26100814
2197	21.96000000	9.71889837	-1.19397906	6.30750099	10.54311769	-1.36702183	4.56843856	9.88917470	9.93003166	1.20820332	10.95156293	1.01666908	0.07344347	9.67400344	-4.34057003	-0.61388899	10.05794482	-1.66455945	1.65094232	6.72075657	-1.08327918	9.31295653	12.10116725	3.95275466	12.44256301
2198	21.97000000	9.46190227	-1.46870740	6.28789298	10.51937581	-1.10438552	4.53697538	9.41995532	8.40482253	1.28006815	11.05164683	-0.33642009	-0.35752618	8.94350763	-6.12364686	-0.07055809	10.15480405	-1.69022748	1.32104532	6.46208108	-1.30164156	9.10431130	13.21350447	4.14318928	13.42613659
2199	21.98000000	9.03555151	-1.66687272	6.14517584	10.28183600	-0.80535340	4.35709244	9.57681511	5.94394493	0.40587310	11.14285703	-0.78104942	-0.35859337	7.97189135	-7.28452295	-0.01911529	10.15403120	-1.31770175	0.95715376	6.21574924	-2.04082270	8.82688752	14.62272100	4.31610329	12.81216230
2200	21.99000000	8.65488056	-1.78404642	6.12243955	9.85880554	-0.38291396	4.16386809	9.92359810	3.66551352	0.22158523	10.55539876	-0.72253840	-0.19991150	6.79546565	-7.67287989	0.16239194	10.28674823	-0.67478976	0.91134340	5.53852192	-2.42886845	8.55026506	11.34992271	4.63738396	11.00920382
2201	22	8.45470260	-1.81355667	6.02380574	9.37829436	0.02775879	3.92708405	10.35838126	1.80886572	0.20867323	9.46813713	-0.20274619	0.04574786	5.44979929	-8.23075481	0.42149048	10.51327879	0.32236334	0.99872955	5.27392019	-2.62804298	8.25539267	1.17981872	4.34156104	7.84194466
2202	22.01000000	8.18471346	-1.74125608	5.78004650	8.90927023	0.44863071	3.65450467	10.61163300	0.27426676	0.05267526	8.76167079	0.20539530	0.34975491	4.50174097	-9.02710353	-0.18406001	10.80585714	1.38184178	1.25056354	5.26220352	-2.78886110	8.11734499	4.12777220	4.72493592	12.83348870
2203	22.02000000	8.13030444	-1.51217474	5.67433073	8.52729717	0.74401450	3.41474775	10.64798689	-0.79508446	0.02202679	8.61829204	0.07502288	0.50660110	3.50677749	-10.54851460	-0.79488741	10.89534896	2.25159482	1.59306631	5.40730265	-2.78200435	7.90316593	19.83191807	6.73170317	20.48911517
2204	22.03000000	8.11569811	-1.45653929	5.65622092	8.39191163	0.92541219	3.26899143	10.56879056	-1.58298592	0.21585541	8.75654919	-0.29976212	0.57749498	2.04666357	-11.58274321	-0.24961125	10.85384780	3.10715483	1.82937465	4.96532669	-2.70114514	7.89603162	10.04658127	7.41800565	14.66011379
2205	22.04000000	8.38705153	-1.45292545	5.77475625	8.59653614	1.05590144	3.13322842	10.65827301	-1.92075921	0.48496349	8.95266295	-0.29634484	0.48353478	1.19855193	-10.51145749	-0.03573314	10.77639654	3.25723694	2.09430617	4.60506415	-2.91632625	7.73803476	-1.39640694	8.97555599	9.90735442
2206	22.05000000	8.46310478	-1.20809164	5.88583286	8.89486649	1.12367758	3.00700326	11.06999905	-1.96209605	0.66047298	9.13689301	0.10234318	0.36088735	1.61477296	-7.95014172	0.02726172	10.40694737	3.22890421	2.06229215	4.62349400	-2.89839973	8.01996393	-3.18260851	7.31789102	8.31188505
2207	22.06000000	8.37495000	-0.96136794	5.85824196	9.12913182	1.20341032	2.87445549	11.24535547	-1.55029873	0.76334719	9.23206113	0.36738348	0.30593971	2.12540219	-5.87540931	1.03658438	9.92251526	2.88482782	1.92938867	4.86655788	-2.76674817	8.06407739	-2.96060710	3.37628610	6.92634645
2208	22.07000000	8.25442878	-0.85079777	5.83428050	9.24046943	1.22529202	2.83545067	10.42913423	-0.17660401	0.09064918	9.28018157	0.36175767	0.39496427	1.98714190	-4.48779613	2.46792018	9.43762682	2.24928993	1.80179554	5.33773637	-2.86190836	8.07832056	-3.14144334	0.24320564	6.92942987
2209	22.08000000	8.17506203	-0.79380772	5.84038574	9.12363954	1.21040863	2.86427103	9.24638755	1.68786565	-0.75039311	9.39238374	0.23321496	0.53363683	1.59420958	-3.62992095	3.65998742	8.96731582	1.65249583	1.83842742	5.39947892	-2.63563753	8.15713172	-2.19474877	-0.70126604	7.84675949
2210	22.09000000	8.07350438	-0.83102422	5.93092940	8.97276046	1.23524770	2.91474041	8.93420317	3.55973356	-0.68901436	9.51965034	-0.07638226	0.61303243	1.49982136	-3.20733144	4.46046247	8.71361059	1.19570131	1.74117645	5.43349831	-2.39987287	8.22083516	-1.15744599	0.11003397	8.59247900
2211	22.10000000	8.05781436	-0.78700692	5.89827204	8.77091699	1.18930049	2.93129743	9.43912737	5.03679101	0.55675578	9.59165073	-0.39410873	0.56613876	1.64200969	-3.23459545	4.99377259	8.53718638	0.95555172	1.70279624	5.50067469	-2.30559022	8.12634144	-0.53350423	1.65324757	9.08587150
2212	22.11000000	8.01132586	-0.76827325	5.88548181	8.60195989	1.12202076	2.86333595	9.87389503	5.48227966	0.82742295	9.64444095	-0.54769498	0.47284405	1.88045177	-3.53559559	4.93797822	8.45456574	0.94313143	1.55045749	5.34735889	-2.61663927	8.19634567	0.12037314	2.75394032	9.75689703
2213	22.12000000	8.04702629	-0.89926803	5.91842927	8.44915242	0.95848234	2.80873147	9.72547115	4.78172107	0.16501823	9.65167756	-0.58607068	0.32215410	2.06899879	-4.03909207	4.32216827	8.63648461	1.17934348	1.49770402	5.30802141	-2.68349719	8.23287480	0.90852654	2.77359372	10.43085031
2214	22.13000000	8.04307363	-0.95580676	5.94253614	8.38229768	0.73336211	2.73560297	9.43173086	3.40806402	0.28826489	9.55303152	-0.56340172	0.27459956	2.18786281	-4.68568943	3.34922408	8.72943505	1.31706898	1.46623270	5.50097226	-2.55571867	8.01442027	1.66326442	1.88101561	11.03780400
2215	22.14000000	8.11053437	-0.97364419	5.98024805	8.38632874	0.58051921	2.68375841	9.58659215	1.56814340	0.78250649	9.37209976	-0.53816170	0.25065060	2.36941675	-5.29750805	2.53862272	8.92671028	1.45312627	1.55903648	5.22380653	-2.41955841	8.23465036	2.20429652	0.76800082	11.67412878
2216	22.15000000	8.13163019	-1.06420010	5.98600664	8.57628801	0.50691633	2.67634314	9.99048134	-0.22050702	0.90037274	9.30615412	-0.48003456	0.23181681	2.85429535	-5.94414346	2.11380437	8.96214211	1.67775779	1.39002238	5.61469862	-2.21986760	8.10337344	2.89806518	0.16782567	12.17833872
2217	22.16000000	8.13460755	-1.04208806	5.98605773	8.81657615	0.37609484	2.63866707	10.24820165	-1.55134659	0.78751240	9.36603395	-0.49896379	0.21504562	3.70223677	-6.46406885	2.23289241	8.96650267	1.60229902	1.17580094	5.55245295	-2.31362449	8.08497322	3.58430156	0.00110546	12.64089492
2218	22.17000000	8.17684220	-1.03228940	6.07775626	8.92633695	0.41809459	2.62748450	10.24821091	-1.90224248	0.64293206	9.33650508	-0.69826419	0.19294383	4.64035468	-6.77661188	2.46900129	9.05239042	1.80271928	1.26732976	5.41052921	-2.24937604	8.20439767	4.41650772	-0.13677365	13.05283179
2219	22.18000000	8.15283109	-1.07983822	6.12998102	9.08191491	0.47032323	2.61143814	10.07205592	-1.43194098	0.30651363	9.27132810	-0.91566237	0.01808932	5.44244769	-6.84336829	2.61924381	8.91930915	1.77253603	1.09027824	5.51707548	-2.12127964	8.22213329	5.34322488	-0.37042410	13.34384623
2220	22.19000000	8.21727601	-1.07242982	6.25613376	9.18269586	0.61863232	2.57609509	10.13743873	-0.33191190	0.16459270	9.13092937	-1.19320673	-0.17987309	6.01059093	-6.69912050	2.52585595	8.61024948	1.59689521	0.81151411	5.69031078	-2.05341283	8.02886796	6.06450106	-0.70390953	13.52504077
2221	22.20000000	8.24550477	-0.94269111	6.29368418	9.25866286	0.80395265	2.60263711	9.92218968	0.57895552	-0.19837528	8.87633475	-1.32306783	-0.33780468	6.44004691	-6.43232343	2.37010226	8.59279997	1.50219139	0.82419332	5.69215337	-2.39083695	7.89814227	7.04156851	-1.05906199	13.73332555
